<?xml version="1.0" standalone="no"?>
<!DOCTYPE svg PUBLIC "-//W3C//DTD SVG 20010904//EN"
 "http://www.w3.org/TR/2001/REC-SVG-20010904/DTD/svg10.dtd">
<svg version="1.0" xmlns="http://www.w3.org/2000/svg"
 width="1280.000000pt" height="640.000000pt" viewBox="0 0 1280.000000 640.000000"
 preserveAspectRatio="xMidYMid meet">
<g transform="translate(0.000000,640.000000) scale(0.100000,-0.100000)"
fill="#000000" stroke="none">
<path d="M2025 5406 c-625 -515 -655 -543 -718 -671 -14 -27 -34 -88 -44 -135
-17 -80 -18 -161 -18 -1300 l0 -1215 274 -3 275 -2 47 50 c25 27 79 88 118
134 l72 85 4 738 c2 406 7 819 12 918 l8 180 250 0 250 0 3 -512 2 -513 233 1
232 0 95 124 94 124 1 388 0 388 435 5 c790 9 5894 -12 5903 -24 4 -6 7 -177
5 -381 -2 -233 1 -376 7 -387 6 -9 51 -66 100 -127 l90 -111 244 2 244 3 1
505 1 505 245 0 245 0 8 -175 c5 -96 10 -505 11 -907 l3 -733 99 -116 c54 -64
110 -124 124 -134 22 -14 54 -16 293 -11 l268 6 -1 1155 c-1 1121 -1 1157 -21
1235 -40 160 -78 258 -132 337 -48 71 -95 113 -647 570 l-595 493 -3760 3
-3761 3 -599 -495z"/>
</g>
</svg>
